# File created by Blade
# Date/Time:  Thu Jan 22 16:04:59 2015
# Frame Rate: 120.000 fps
#------------------------------------------------------
:FULLY-SPECIFIED
:DEGREES
2863
root 3.456814 36.925671 5.515104 -2.336569 -5.362627 1.835988
RightUpLeg 9.874540 -4.504390 -9.360208
RightLeg -5.330721 -0.000000 0.000000
RightFoot -9.168461 -10.494445 20.274180
RightToeBase 11.549826 -0.000000 -0.000000
LeftUpLeg 8.772603 0.721413 7.101204
LeftLeg -2.383571 -0.000000 0.000000
LeftFoot -5.911611 5.693460 -22.646313
LeftToeBase 6.317073 -0.000000 -0.000000
Spine 5.828417 -5.311001 -3.048322
RightShoulder -0.477045 -15.803335 -24.818381
RightArm 10.164854 21.154769 39.539983
RightForeArm -2.496007 -0.000000 13.852222
RightHand 0.778637 0.000000 2.176606
RightHandThumb1 -24.326973 -0.000000 -32.862282
LeftShoulder -26.630825 34.408482 10.850097
LeftArm 42.979928 -42.534970 -56.772800
LeftForeArm 31.138402 -0.000000 3.523941
LeftHand -20.656744 -0.000000 -5.264622
LeftHandThumb1 -26.253704 0.000000 33.147579
Head 1.833405 17.792969 3.303892
2864
root 3.460261 36.927552 5.506851 -2.356002 -5.360987 1.833096
RightUpLeg 9.882266 -4.472124 -9.359228
RightLeg -5.336269 -0.000000 0.000000
RightFoot -9.148074 -10.526605 20.287801
RightToeBase 11.548698 -0.000000 -0.000000
LeftUpLeg 8.784162 0.733913 7.101056
LeftLeg -2.395801 -0.000000 0.000000
LeftFoot -5.891087 5.688809 -22.649621
LeftToeBase 6.383983 -0.000000 -0.000000
Spine 5.745137 -5.315896 -3.019121
RightShoulder -0.301436 -15.367129 -24.880144
RightArm 10.265274 21.349740 39.285730
RightForeArm -2.397640 -0.000000 13.927927
RightHand 0.803529 -0.000000 2.424695
RightHandThumb1 -24.326973 -0.000000 -32.862282
LeftShoulder -26.251489 34.189135 11.198162
LeftArm 42.955798 -42.506689 -56.351352
LeftForeArm 31.335702 0.000000 3.594744
LeftHand -20.493106 -0.000000 -5.566227
LeftHandThumb1 -26.253704 0.000000 33.147579
Head 1.532975 17.822412 3.176306
2865
root 3.463558 36.929600 5.500482 -2.373106 -5.330727 1.834642
RightUpLeg 9.901575 -4.481017 -9.366437
RightLeg -5.346371 -0.000000 0.000000
RightFoot -9.118954 -10.537788 20.294372
RightToeBase 11.510220 -0.000000 -0.000000
LeftUpLeg 8.796368 0.720597 7.096581
LeftLeg -2.426392 -0.000000 0.000000
LeftFoot -5.841102 5.688521 -22.626411
LeftToeBase 6.365230 -0.000000 -0.000000
Spine 5.648977 -5.353694 -2.998299
RightShoulder -0.138537 -15.049651 -24.938699
RightArm 10.470549 21.488436 39.048286
RightForeArm -2.143281 -0.000000 13.992709
RightHand 0.647698 0.000000 2.464311
RightHandThumb1 -24.326973 -0.000000 -32.862282
LeftShoulder -25.894360 34.015705 11.516164
LeftArm 42.967551 -42.477205 -55.944295
LeftForeArm 31.453498 -0.000000 3.578757
LeftHand -20.054777 0.000000 -5.216459
LeftHandThumb1 -26.253704 0.000000 33.147579
Head 1.335867 17.827328 3.140983
2866
root 3.466257 36.931090 5.495124 -2.387437 -5.296446 1.837059
RightUpLeg 9.920647 -4.497674 -9.372037
RightLeg -5.359813 -0.000000 0.000000
RightFoot -9.098415 -10.554905 20.309754
RightToeBase 11.506278 -0.000000 -0.000000
LeftUpLeg 8.803861 0.717032 7.093381
LeftLeg -2.446840 -0.000000 0.000000
LeftFoot -5.806455 5.665187 -22.638154
LeftToeBase 6.351436 -0.000000 -0.000000
Spine 5.551120 -5.400657 -2.983760
RightShoulder 0.032475 -14.756263 -24.987471
RightArm 10.677715 21.596887 38.766566
RightForeArm -1.959102 -0.000000 13.968834
RightHand 0.771749 -0.000000 2.623093
RightHandThumb1 -24.326973 -0.000000 -32.862282
LeftShoulder -25.537850 33.858925 11.841410
LeftArm 42.992417 -42.518820 -55.626084
LeftForeArm 31.553614 -0.000000 3.594373
LeftHand -19.930663 -0.000000 -5.012327
LeftHandThumb1 -26.253704 0.000000 33.147579
Head 1.129230 17.854155 3.112409
2867
root 3.471446 36.932594 5.485324 -2.379608 -5.291801 1.853189
RightUpLeg 9.889917 -4.464529 -9.387780
RightLeg -5.347315 -0.000000 0.000000
RightFoot -9.117283 -10.589406 20.360929
RightToeBase 11.516317 -0.000000 -0.000000
LeftUpLeg 8.785859 0.745512 7.075083
LeftLeg -2.465741 -0.000000 0.000000
LeftFoot -5.763724 5.646069 -22.645131
LeftToeBase 6.366405 -0.000000 -0.000000
Spine 5.429860 -5.392956 -2.971777
RightShoulder 0.193334 -14.473838 -25.028412
RightArm 10.878612 21.673554 38.484480
RightForeArm -1.422676 -0.000000 13.969694
RightHand 0.598426 -0.000000 2.474758
RightHandThumb1 -24.326973 -0.000000 -32.862282
LeftShoulder -25.170948 33.775007 12.137060
LeftArm 43.112845 -42.579250 -55.344853
LeftForeArm 31.438094 0.000000 3.506061
LeftHand -19.613586 -0.000000 -5.092082
LeftHandThumb1 -26.253704 0.000000 33.147579
Head 0.922697 17.867350 3.081951
2868
root 3.474343 36.933516 5.483466 -2.385233 -5.223990 1.857368
RightUpLeg 9.925419 -4.541515 -9.403834
RightLeg -5.383722 -0.000000 0.000000
RightFoot -9.071615 -10.558069 20.389230
RightToeBase 11.481852 -0.000000 -0.000000
LeftUpLeg 8.792355 0.740307 7.074362
LeftLeg -2.505762 -0.000000 0.000000
LeftFoot -5.705727 5.592972 -22.640473
LeftToeBase 6.332923 -0.000000 -0.000000
Spine 5.308952 -5.456982 -2.960165
RightShoulder 0.358046 -14.234046 -25.085311
RightArm 11.085798 21.848574 38.255542
RightForeArm -1.296690 0.000000 13.930000
RightHand 0.678539 -0.000000 2.759818
RightHandThumb1 -24.326973 -0.000000 -32.862282
LeftShoulder -24.822418 33.639159 12.448966
LeftArm 43.115009 -42.537513 -54.911125
LeftForeArm 31.256861 -0.000000 3.376422
LeftHand -19.483708 -0.000000 -4.979292
LeftHandThumb1 -26.253704 0.000000 33.147579
Head 0.764411 17.833864 3.059189
